<svg width="147" height="121" viewBox="0 0 147 121" fill="none" xmlns="http://www.w3.org/2000/svg">
<path fill-rule="evenodd" clip-rule="evenodd" d="M39.9578 19.7256C40.4271 19.0731 40.9484 18.2743 41.6132 17.1972C41.9857 16.5936 43.3448 14.3454 43.5669 13.982C49.059 4.99832 53.0512 0.875 60.25 0.875H86.75C93.9488 0.875 97.941 4.99832 103.433 13.982C103.655 14.3454 105.014 16.5936 105.387 17.1972C106.052 18.2743 106.573 19.0731 107.042 19.7256C107.352 20.1559 107.622 20.4978 107.843 20.75H126.5C137.477 20.75 146.375 29.6483 146.375 40.625V100.25C146.375 111.227 137.477 120.125 126.5 120.125H20.5C9.52334 120.125 0.625 111.227 0.625 100.25V40.625C0.625 29.6483 9.52334 20.75 20.5 20.75H39.1573C39.3779 20.4978 39.6482 20.1559 39.9578 19.7256ZM20.5 34C16.8411 34 13.875 36.9661 13.875 40.625V100.25C13.875 103.909 16.8411 106.875 20.5 106.875H126.5C130.159 106.875 133.125 103.909 133.125 100.25V40.625C133.125 36.9661 130.159 34 126.5 34H106.625C102.224 34 99.2556 31.5912 96.2859 27.4628C95.6027 26.5129 94.9258 25.4757 94.1112 24.1558C93.6999 23.4893 92.3205 21.2077 92.1282 20.893C89.1317 15.9914 87.3246 14.125 86.75 14.125H60.25C59.6754 14.125 57.8683 15.9914 54.8718 20.893C54.6795 21.2077 53.3001 23.4893 52.8888 24.1558C52.0742 25.4757 51.3973 26.5129 50.7141 27.4628C47.7444 31.5912 44.7763 34 40.375 34H20.5ZM119.875 53.875C123.534 53.875 126.5 50.9089 126.5 47.25C126.5 43.5911 123.534 40.625 119.875 40.625C116.216 40.625 113.25 43.5911 113.25 47.25C113.25 50.9089 116.216 53.875 119.875 53.875ZM73.5 100.25C55.2056 100.25 40.375 85.4194 40.375 67.125C40.375 48.8306 55.2056 34 73.5 34C91.7944 34 106.625 48.8306 106.625 67.125C106.625 85.4194 91.7944 100.25 73.5 100.25ZM73.5 87C84.4767 87 93.375 78.1017 93.375 67.125C93.375 56.1483 84.4767 47.25 73.5 47.25C62.5233 47.25 53.625 56.1483 53.625 67.125C53.625 78.1017 62.5233 87 73.5 87Z" fill="white"/>
</svg>
