<svg width="123" height="107" viewBox="0 0 123 107" fill="none" xmlns="http://www.w3.org/2000/svg">
<g clip-path="url(#clip0_80_23)">
<path fill-rule="evenodd" clip-rule="evenodd" d="M117.24 5.64005C118.045 6.44188 118.684 7.39483 119.12 8.44421C119.556 9.49358 119.78 10.6187 119.78 11.755C119.78 12.8914 119.556 14.0165 119.12 15.0659C118.684 16.1153 118.045 17.0682 117.24 17.87C116.546 18.5614 115.742 19.1325 114.86 19.56C114.355 19.7971 113.829 19.9878 113.29 20.13C114.513 21.7859 115.631 23.5158 116.64 25.31C117.848 27.4578 118.891 29.6943 119.76 32C123.325 41.3678 123.84 51.6225 121.23 61.3C118.8 70.49 113.53 79.82 104.76 88.6C104.53 88.8331 104.256 89.0178 103.954 89.1432C103.652 89.2685 103.327 89.3321 103 89.33C102.388 89.3302 101.798 89.1061 101.34 88.7L101.23 88.61L34.23 21.61C33.9944 21.3796 33.8075 21.1042 33.6803 20.8002C33.5532 20.4961 33.4885 20.1696 33.49 19.84V19.77C33.5075 19.1281 33.7684 18.5167 34.22 18.06C34.2739 18.0032 34.3343 17.9528 34.4 17.91C43.19 9.25005 52.49 4.00005 61.64 1.62005C73.7604 -1.59196 86.6565 0.0662627 97.57 6.24005C99.365 7.24737 101.095 8.36623 102.75 9.59005C102.889 9.04324 103.08 8.51087 103.32 8.00005C103.74 7.1198 104.309 6.31817 105 5.63005C105.803 4.82607 106.756 4.18824 107.805 3.75304C108.854 3.31785 109.979 3.09385 111.115 3.09385C112.251 3.09385 113.376 3.31785 114.425 3.75304C115.474 4.18824 116.427 4.82607 117.23 5.63005L117.24 5.64005ZM55.37 49.28C55.5826 49.0134 55.8915 48.8411 56.23 48.8C56.407 48.7761 56.587 48.7886 56.7589 48.8367C56.9309 48.8849 57.0912 48.9677 57.23 49.08C57.3628 49.1846 57.4736 49.3144 57.556 49.462C57.6384 49.6096 57.6907 49.7721 57.71 49.94C57.7353 50.1163 57.7245 50.2959 57.678 50.4679C57.6316 50.6398 57.5506 50.8005 57.44 50.94C54.82 54.23 60.44 57.77 56.2 62.94C56.0917 63.0721 55.9584 63.1814 55.8078 63.2619C55.6572 63.3424 55.4922 63.3924 55.3223 63.4092C55.1523 63.4259 54.9808 63.4089 54.8174 63.3593C54.654 63.3097 54.502 63.2284 54.37 63.12C54.1086 62.9001 53.9435 62.5867 53.9098 62.2467C53.8762 61.9067 53.9767 61.567 54.19 61.3C57.42 57.36 51.64 54.08 55.41 49.3L55.37 49.28ZM79.25 95.34L78.55 96.03H115.35C115.546 96.03 115.734 96.108 115.873 96.2468C116.012 96.3856 116.09 96.5738 116.09 96.77V105.55C116.09 105.746 116.012 105.935 115.873 106.073C115.734 106.212 115.546 106.29 115.35 106.29H0.739998C0.543738 106.29 0.355516 106.212 0.216739 106.073C0.0779621 105.935 -1.95106e-06 105.746 -1.95106e-06 105.55V96.77C-0.00404611 96.6704 0.0121039 96.5709 0.0474774 96.4776C0.082851 96.3844 0.136718 96.2992 0.20584 96.2273C0.274962 96.1554 0.357913 96.0982 0.449707 96.0591C0.541501 96.0201 0.640243 96 0.739998 96H20.62L20 95.34H19.77C19.1657 95.3022 18.5752 95.1427 18.0339 94.8712C17.4926 94.5997 17.0117 94.2218 16.62 93.76C15.8302 92.8383 15.3973 91.6638 15.4 90.45C15.4 90.35 15.4 90.24 15.4 90.13C15.439 89.4977 15.5428 88.8711 15.71 88.26C16.0382 86.925 16.8554 85.7616 18 85C19.0992 84.3266 20.386 84.025 21.67 84.14C22.1998 84.176 22.7252 84.2597 23.24 84.39C24.8234 80.5958 27.0419 77.0991 29.8 74.05C32.4194 71.1666 35.6059 68.855 39.16 67.26C43.884 65.1537 49.1402 64.5464 54.22 65.52C55.9313 65.8381 57.6064 66.3272 59.22 66.98C62.9849 68.5222 66.3897 70.8273 69.22 73.75C72.211 76.8366 74.6528 80.4113 76.44 84.32C77.5414 83.9756 78.714 83.9273 79.84 84.18C80.9327 84.4596 81.8793 85.1419 82.49 86.09C83.4067 87.5443 83.7622 89.2827 83.49 90.98C83.4075 91.7808 83.1628 92.5565 82.7708 93.2596C82.3788 93.9628 81.8478 94.5788 81.21 95.07C81.1032 95.1476 80.9852 95.2083 80.86 95.25C80.7538 95.2638 80.6462 95.2638 80.54 95.25H79.34L79.25 95.34ZM73.8 85.34C72.1473 81.7795 69.9096 78.5211 67.18 75.7C64.6326 73.0656 61.5686 70.9855 58.18 69.59C56.7427 69.0077 55.2524 68.5657 53.73 68.27C52.2268 67.9877 50.6994 67.8538 49.17 67.87C47.6492 67.8928 46.1348 68.0704 44.65 68.4C43.1529 68.7312 41.6924 69.2102 40.29 69.83C37.1207 71.2395 34.2725 73.2812 31.92 75.83C29.436 78.5535 27.4249 81.6732 25.97 85.06L26.24 85.21L26.78 85.53C27.5769 86.0749 28.4639 86.4744 29.4 86.71C29.8796 86.7772 30.3685 86.7205 30.82 86.5455C31.2716 86.3705 31.6709 86.0829 31.98 85.71C32.4929 85.1631 33.0865 84.6977 33.74 84.33C34.3761 83.9839 35.086 83.7953 35.81 83.78C36.5896 83.7805 37.3602 83.9475 38.07 84.27C39.0098 84.7042 39.893 85.2516 40.7 85.9C41.0062 86.1187 41.3432 86.2906 41.7 86.41C42.096 86.5337 42.5058 86.6076 42.92 86.63C43.29 86.6445 43.6602 86.6074 44.02 86.52C44.3127 86.4489 44.5882 86.3197 44.83 86.14C45.22 85.83 45.62 85.53 46.02 85.26C46.4272 84.9837 46.8514 84.7332 47.29 84.51C47.7414 84.2925 48.2139 84.1216 48.7 84C49.2061 83.8712 49.7283 83.8173 50.25 83.84C51.0557 83.8491 51.8477 84.0497 52.5606 84.4253C53.2735 84.8009 53.8869 85.3406 54.35 86V86.06C54.5549 86.3811 54.8351 86.6473 55.1662 86.8355C55.4973 87.0237 55.8693 87.1282 56.25 87.14C56.8259 87.1078 57.3891 86.9581 57.905 86.7001C58.4209 86.4421 58.8786 86.0814 59.25 85.64C60.0854 84.6937 61.1866 84.0212 62.41 83.71C63.71 83.48 65.41 83.85 67.81 85.4C68.8653 86.2176 70.1902 86.6069 71.52 86.49C72.3501 86.2919 73.1192 85.8937 73.76 85.33L73.8 85.34ZM42.93 49.34C43.1356 49.0653 43.4408 48.8821 43.78 48.83C44.1095 48.7852 44.4434 48.8714 44.71 49.07C44.8487 49.1702 44.9661 49.2969 45.0554 49.4428C45.1447 49.5887 45.204 49.751 45.23 49.92C45.2737 50.2494 45.1877 50.5829 44.99 50.85C42.45 54.32 47.22 57.72 43.8 62.79C43.6046 63.0717 43.3067 63.2656 42.97 63.33C42.7993 63.3703 42.6221 63.3742 42.4498 63.3414C42.2775 63.3087 42.114 63.2401 41.97 63.14C41.8278 63.0445 41.7059 62.9218 41.6113 62.779C41.5167 62.6361 41.4512 62.476 41.4187 62.3078C41.3861 62.1396 41.3872 61.9666 41.4217 61.7988C41.4563 61.631 41.5237 61.4717 41.62 61.33C44.38 57.25 39.22 54.33 42.87 49.33L42.93 49.34ZM42.47 72.07C42.5853 71.9454 42.7243 71.845 42.8788 71.7746C43.0333 71.7042 43.2003 71.6653 43.37 71.66C43.6262 71.6514 43.8791 71.7187 44.0972 71.8534C44.3152 71.9881 44.4886 72.1843 44.5954 72.4173C44.7023 72.6502 44.7379 72.9096 44.6978 73.1627C44.6577 73.4159 44.5436 73.6515 44.37 73.84L40.82 77.65C40.5807 77.8823 40.2613 78.0137 39.9279 78.0171C39.5944 78.0206 39.2724 77.8957 39.0284 77.6684C38.7844 77.4411 38.6371 77.1287 38.6169 76.7959C38.5968 76.463 38.7053 76.1352 38.92 75.88L42.47 72.07ZM55.32 73.84C55.2026 73.7162 55.1112 73.5701 55.0511 73.4104C54.991 73.2507 54.9634 73.0806 54.97 72.91C54.975 72.7388 55.0138 72.5703 55.0842 72.4141C55.1545 72.258 55.2551 72.1172 55.38 72C55.6347 71.7712 55.9678 71.6495 56.31 71.66C56.4812 71.6651 56.6497 71.7039 56.8059 71.7742C56.9621 71.8446 57.1028 71.9451 57.22 72.07L60.76 75.88C60.9933 76.1326 61.1189 76.4663 61.11 76.81C61.082 77.1424 60.9272 77.4513 60.6778 77.6728C60.4284 77.8943 60.1034 78.0115 59.77 78C59.5988 77.995 59.4303 77.9562 59.2741 77.8859C59.1179 77.8155 58.9772 77.715 58.86 77.59L55.32 73.78V73.84ZM48.42 73.84C48.4273 73.5114 48.5638 73.1988 48.8 72.97C48.921 72.8503 49.0647 72.7559 49.2227 72.6923C49.3807 72.6288 49.5497 72.5974 49.72 72.6C50.0487 72.6074 50.3613 72.7439 50.59 72.98C50.7098 73.1011 50.8042 73.2448 50.8677 73.4028C50.9312 73.5607 50.9626 73.7298 50.96 73.9V78.41C50.9471 78.7461 50.8044 79.064 50.562 79.2971C50.3196 79.5302 49.9963 79.6603 49.66 79.66C49.324 79.6471 49.006 79.5045 48.7729 79.262C48.5398 79.0196 48.4097 78.6963 48.41 78.36V73.88L48.42 73.84ZM75.42 87.58C74.4257 88.4507 73.2237 89.05 71.93 89.32C70.5 89.54 68.75 89.2 66.41 87.73C63.28 85.73 62.29 86.65 61.2 87.66C60.6266 88.2358 59.9852 88.7395 59.29 89.16C58.3964 89.6513 57.3895 89.8995 56.37 89.88C55.4847 89.9128 54.609 89.6869 53.85 89.23C53.285 88.8455 52.7853 88.3729 52.37 87.83C52.1289 87.5288 51.8499 87.2599 51.54 87.03C51.1506 86.7728 50.6965 86.6307 50.23 86.62C49.9571 86.6104 49.6842 86.6407 49.42 86.71C49.1257 86.7893 48.8407 86.9 48.57 87.04C48.2237 87.2101 47.8896 87.4039 47.57 87.62C47.24 87.85 46.9 88.1 46.57 88.37C46.0681 88.7537 45.498 89.0387 44.89 89.21C44.2383 89.3848 43.5644 89.4623 42.89 89.44C42.2089 89.4066 41.5358 89.2787 40.89 89.06C40.2074 88.8467 39.5677 88.515 39 88.08C38.4193 87.6094 37.7889 87.2036 37.12 86.87C36.7172 86.6618 36.2732 86.5457 35.82 86.53C35.4967 86.5463 35.1831 86.6462 34.91 86.82C34.5432 87.0497 34.2071 87.3253 33.91 87.64C33.4101 88.171 32.8378 88.6288 32.21 89C31.7103 89.2935 31.1614 89.4934 30.59 89.59C29.583 89.7846 28.5411 89.6839 27.59 89.3C26.6463 88.913 25.7365 88.4481 24.87 87.91C23.8455 87.2745 22.6895 86.8811 21.49 86.76C20.9074 86.7085 20.3209 86.7976 19.78 87.02C19.2705 87.2543 18.8473 87.6426 18.57 88.13C18.221 88.7948 18.0262 89.5297 18 90.28C17.9543 90.5817 17.9737 90.8896 18.0568 91.1832C18.1399 91.4767 18.2848 91.7491 18.4817 91.9821C18.6787 92.215 18.9232 92.4032 19.1989 92.5339C19.4745 92.6646 19.775 92.7349 20.08 92.74H79.91C80.5013 92.0737 80.8532 91.2291 80.91 90.34C81.0364 89.3777 80.8318 88.4009 80.33 87.57C80.1265 87.2742 79.8529 87.0334 79.5335 86.8694C79.2141 86.7053 78.859 86.6231 78.5 86.63C77.4129 86.6761 76.3543 86.9923 75.42 87.55V87.58ZM49.16 49.33C49.2601 49.1913 49.3868 49.0739 49.5328 48.9847C49.6787 48.8954 49.8409 48.836 50.01 48.81C50.1783 48.7816 50.3507 48.7872 50.5168 48.8264C50.683 48.8656 50.8396 48.9376 50.9775 49.0382C51.1155 49.1389 51.2318 49.2661 51.3198 49.4124C51.4078 49.5586 51.4657 49.7211 51.49 49.89C51.5246 50.0635 51.522 50.2423 51.4823 50.4147C51.4427 50.5871 51.3669 50.7491 51.26 50.89C48.4 54.8 54 57.63 50 62.86C49.896 62.9943 49.7664 63.1067 49.6189 63.1908C49.4713 63.2749 49.3085 63.329 49.14 63.35C48.9651 63.3812 48.7856 63.3751 48.6133 63.332C48.4409 63.2889 48.2796 63.2099 48.14 63.1C47.8699 62.8875 47.6911 62.5799 47.64 62.24C47.6133 62.0644 47.6225 61.8852 47.6672 61.7133C47.7119 61.5414 47.7911 61.3804 47.9 61.24C50.9 57.3 45.24 54.61 49.1 49.24L49.16 49.33ZM39.61 19.9L103 83.27C110.22 75.53 114.56 67.41 116.56 59.46C118.736 50.9452 118.229 41.9662 115.11 33.75C113.996 30.831 112.574 28.0387 110.87 25.42C109.13 22.7657 107.119 20.2992 104.87 18.06C100.409 13.5614 95.0443 10.0609 89.13 7.79005C80.9138 4.67059 71.9348 4.16419 63.42 6.34005C55.42 8.34005 47.35 12.68 39.61 19.9ZM57.54 21.9C56.9597 22.1892 56.291 22.2464 55.67 22.06C55.0337 21.8661 54.5004 21.4275 54.1873 20.8406C53.8741 20.2537 53.8068 19.5666 54 18.93C54.1976 18.2962 54.6355 17.765 55.22 17.45C57.7612 16.1108 60.4447 15.0609 63.22 14.32C65.8583 13.6275 68.5724 13.2647 71.3 13.24C73.992 13.2182 76.6771 13.5136 79.3 14.12C82.0513 14.7555 84.7316 15.6668 87.3 16.84C87.5996 16.9751 87.8696 17.1679 88.0946 17.4074C88.3196 17.6469 88.4951 17.9285 88.6112 18.2359C88.7273 18.5433 88.7817 18.8706 88.7712 19.1991C88.7607 19.5275 88.6855 19.8507 88.55 20.15C88.2746 20.7345 87.7836 21.1896 87.18 21.42C86.5565 21.65 85.868 21.6285 85.26 21.36C83.0128 20.3328 80.6676 19.5355 78.26 18.98C75.989 18.4477 73.6625 18.1892 71.33 18.21C69.0042 18.2313 66.6899 18.5403 64.44 19.13C62.0335 19.7684 59.7082 20.681 57.51 21.85L57.54 21.9Z" fill="white"/>
</g>
<defs>
<clipPath id="clip0_80_23">
<rect width="122.88" height="106.29" fill="white"/>
</clipPath>
</defs>
</svg>
