<svg xmlns="http://www.w3.org/2000/svg" width="36" height="30" viewBox="0 0 36 30" fill="none">
  <path d="M32.4375 0.5625H8.8125C8.11631 0.5625 7.44863 0.839062 6.95634 1.33134C6.46406 1.82363 6.1875 2.49131 6.1875 3.1875V5.8125H3.5625C2.86631 5.8125 2.19863 6.08906 1.70634 6.58135C1.21406 7.07363 0.9375 7.74131 0.9375 8.4375V26.8125C0.9375 27.5087 1.21406 28.1764 1.70634 28.6687C2.19863 29.1609 2.86631 29.4375 3.5625 29.4375H27.1875C27.8837 29.4375 28.5514 29.1609 29.0437 28.6687C29.5359 28.1764 29.8125 27.5087 29.8125 26.8125V24.1875H32.4375C33.1337 24.1875 33.8014 23.9109 34.2937 23.4187C34.7859 22.9264 35.0625 22.2587 35.0625 21.5625V3.1875C35.0625 2.49131 34.7859 1.82363 34.2937 1.33134C33.8014 0.839062 33.1337 0.5625 32.4375 0.5625ZM25.2188 5.8125C25.6081 5.8125 25.9888 5.92796 26.3125 6.14429C26.6363 6.36062 26.8886 6.6681 27.0376 7.02784C27.1866 7.38758 27.2256 7.78343 27.1497 8.16533C27.0737 8.54723 26.8862 8.89803 26.6109 9.17337C26.3355 9.4487 25.9847 9.63621 25.6028 9.71217C25.2209 9.78814 24.8251 9.74915 24.4653 9.60014C24.1056 9.45113 23.7981 9.19879 23.5818 8.87503C23.3655 8.55127 23.25 8.17063 23.25 7.78125C23.25 7.25911 23.4574 6.75835 23.8266 6.38913C24.1958 6.01992 24.6966 5.8125 25.2188 5.8125ZM27.1875 26.8125H3.5625V8.4375H6.1875V21.5625C6.1875 22.2587 6.46406 22.9264 6.95634 23.4187C7.44863 23.9109 8.11631 24.1875 8.8125 24.1875H27.1875V26.8125ZM32.4375 21.5625H8.8125V15.6562L14.7188 9.75L22.8661 17.8973C23.1122 18.1433 23.4459 18.2815 23.7939 18.2815C24.1418 18.2815 24.4755 18.1433 24.7216 17.8973L28.9315 13.6875L32.4375 17.1952V21.5625Z" fill="#5D60B5"/>
</svg>